<?xml version="1.0" standalone="no"?>
<!DOCTYPE svg PUBLIC "-//W3C//DTD SVG 20010904//EN"
 "http://www.w3.org/TR/2001/REC-SVG-20010904/DTD/svg10.dtd">
<svg version="1.0" xmlns="http://www.w3.org/2000/svg"
 width="200.000000pt" height="200.000000pt" viewBox="0 0 200.000000 200.000000"
 preserveAspectRatio="xMidYMid meet">
<metadata>
Created by potrace 1.11, written by Peter Selinger 2001-2013
</metadata>
<g transform="translate(0.000000,200.000000) scale(0.100000,-0.100000)"
fill="#000000" stroke="none">
<path d="M817 1683 c-2 -5 9 -36 26 -71 38 -82 57 -67 20 16 -26 59 -37 71
-46 55z"/>
<path d="M996 1653 c-3 -3 -6 -24 -6 -45 0 -53 25 -51 27 2 2 38 -7 56 -21 43z"/>
<path d="M1141 1611 c-24 -57 -25 -61 -11 -61 11 0 49 75 50 98 0 27 -19 9
-39 -37z"/>
<path d="M1242 1566 c-32 -37 -40 -56 -23 -56 15 0 63 68 59 81 -2 6 -18 -5
-36 -25z"/>
<path d="M710 1583 c0 -11 66 -63 79 -63 20 0 11 15 -23 43 -34 27 -56 34 -56
20z"/>
<path d="M580 1491 c0 -5 17 -17 38 -26 20 -10 49 -24 64 -31 16 -9 29 -10 33
-4 3 5 -21 23 -54 40 -63 31 -81 36 -81 21z"/>
<path d="M1360 1478 c-57 -27 -71 -38 -64 -49 6 -11 124 47 124 61 0 14 -10
13 -60 -12z"/>
<path d="M810 1463 c-19 -10 -45 -34 -58 -53 -33 -49 -26 -121 19 -187 52 -77
179 -194 217 -200 28 -4 74 28 149 103 114 114 150 215 103 292 -21 34 -72 62
-113 62 -32 0 -87 -23 -113 -49 l-22 -20 -18 20 c-42 47 -109 60 -164 32z
m110 -38 c43 -22 51 -44 33 -85 -19 -46 -21 -123 -4 -144 22 -26 72 -17 90 16
13 23 14 35 2 85 -20 89 -19 95 18 120 37 25 96 30 122 10 68 -52 46 -157 -56
-260 -75 -77 -121 -110 -142 -103 -29 10 -139 119 -178 175 -26 40 -35 64 -35
95 0 86 74 130 150 91z m89 -167 c1 -28 -3 -38 -14 -38 -23 0 -28 23 -14 71
10 37 13 41 20 24 4 -11 8 -37 8 -57z"/>
<path d="M605 1322 c-12 -12 10 -22 51 -22 32 0 44 4 42 12 -4 12 -82 20 -93
10z"/>
<path d="M1304 1318 c-3 -4 1 -11 9 -14 23 -8 82 0 80 11 -3 12 -82 15 -89 3z"/>
<path d="M643 1170 c-24 -10 -43 -24 -43 -30 0 -5 3 -10 6 -10 15 0 104 44
104 51 0 14 -21 10 -67 -11z"/>
<path d="M1302 1179 c2 -7 25 -20 51 -30 62 -24 73 -5 12 21 -53 23 -68 25
-63 9z"/>
<path d="M691 1074 c-30 -25 -40 -44 -23 -44 5 0 26 16 48 35 47 41 23 50 -25
9z"/>
<path d="M1260 1093 c1 -14 72 -63 82 -57 5 4 -5 19 -24 35 -32 27 -58 37 -58
22z"/>
<path d="M761 993 c-16 -20 -28 -40 -25 -45 7 -11 28 6 55 43 30 42 5 44 -30
2z"/>
<path d="M1220 1011 c0 -12 58 -71 70 -71 17 0 11 13 -20 48 -29 31 -50 41
-50 23z"/>
<path d="M877 983 c-7 -7 -47 -91 -47 -99 0 -2 6 -4 13 -4 13 0 51 83 45 100
-2 6 -7 8 -11 3z"/>
<path d="M1130 975 c0 -20 52 -125 62 -125 12 0 10 11 -18 78 -26 59 -44 79
-44 47z"/>
<path d="M1009 970 c-5 -52 -3 -80 6 -82 14 -4 19 72 6 85 -8 8 -11 7 -12 -3z"/>
<path d="M799 832 c-16 -2 -31 -13 -38 -28 -13 -30 -14 -45 -1 -24 8 13 10 12
11 -5 3 -50 -3 -141 -11 -150 -6 -7 11 -9 48 -6 31 3 47 7 35 9 -26 4 -26 4
-24 90 1 59 0 62 -19 52 -14 -7 -20 -7 -20 0 0 5 6 10 13 10 8 0 7 4 -3 11
-12 8 -10 9 8 4 16 -5 22 -2 22 9 0 8 8 16 18 18 27 6 -7 14 -39 10z m7 -161
c0 -25 -3 -40 -10 -38 -15 5 -19 67 -3 67 8 0 7 4 -3 11 -13 9 -13 10 0 6 10
-2 15 -17 16 -46z"/>
<path d="M1065 830 c-2 -3 -2 -42 0 -87 4 -94 -1 -120 -24 -126 -9 -2 12 -3
47 -2 61 2 102 15 49 15 -25 0 -27 3 -24 39 2 30 0 38 -10 34 -8 -3 -12 -12
-8 -22 5 -13 4 -13 -6 -4 -10 10 -9 17 7 31 25 23 56 14 65 -19 5 -16 7 -7 8
30 l1 55 -21 -22 c-26 -29 -37 -22 -37 27 -1 33 3 40 21 43 13 2 4 6 -21 9
-24 2 -45 2 -47 -1z m35 -189 c0 -5 -7 -11 -14 -14 -10 -4 -13 -1 -9 9 6 15
23 19 23 5z"/>
<path d="M1160 831 c0 -8 43 -36 51 -33 4 1 5 -7 2 -17 -3 -10 -1 -21 5 -24 5
-4 9 12 10 33 1 22 -1 40 -6 41 -37 5 -62 5 -62 0z"/>
<path d="M1313 828 c-33 -8 -83 -60 -64 -66 5 -2 7 -10 4 -18 -3 -7 -9 -11
-14 -8 -5 3 -9 -2 -9 -11 0 -24 54 21 67 56 6 15 20 32 31 38 18 10 24 7 39
-16 25 -38 24 -134 -1 -162 -21 -23 -72 -30 -60 -8 4 6 4 9 -1 5 -11 -10 -47
11 -39 24 4 7 9 6 15 -3 6 -10 9 -8 9 9 0 17 -5 22 -17 20 -10 -1 -23 1 -30 5
-24 15 0 -34 29 -58 55 -46 123 -26 151 45 37 90 -24 171 -110 148z m97 -33
c0 -12 -19 -12 -23 0 -4 9 -1 12 9 8 7 -3 14 -7 14 -8z m-130 -20 c-7 -9 -15
-13 -17 -11 -7 7 7 26 19 26 6 0 6 -6 -2 -15z m134 -10 c-7 -16 -24 -21 -24
-6 0 8 7 13 27 20 1 1 0 -6 -3 -14z m11 -32 c-4 -10 -8 -27 -9 -37 -1 -21 -26
-36 -26 -16 0 6 5 8 11 4 8 -4 9 1 4 15 -4 13 -1 28 5 36 17 20 24 19 15 -2z"/>
<path d="M1523 824 c-35 -15 -57 -43 -67 -86 l-6 -27 30 17 c16 9 30 25 30 35
0 10 12 30 26 44 l27 27 23 -29 c20 -25 23 -39 20 -94 -3 -63 -19 -91 -51 -91
-23 0 -46 37 -47 76 -1 21 -3 33 -6 26 -2 -7 -9 -9 -15 -5 -8 4 -7 1 1 -9 10
-13 10 -17 -2 -21 -8 -3 -17 -1 -20 6 -2 7 -5 4 -5 -6 -1 -22 45 -70 59 -62 6
3 10 2 10 -4 0 -16 33 -18 63 -4 15 8 25 18 22 24 -4 5 -1 8 6 7 6 -2 14 3 17
11 2 8 0 11 -6 7 -6 -3 -14 -1 -18 5 -4 8 -3 9 4 5 7 -4 10 3 7 22 -4 34 8 61
20 43 4 -7 2 -17 -4 -24 -5 -7 -6 -19 -2 -26 14 -23 23 36 11 78 -8 32 -17 42
-50 55 -22 9 -41 16 -43 15 -1 0 -16 -7 -34 -15z m106 -33 c8 -14 7 -22 -7
-32 -15 -13 -16 -12 -3 4 7 9 9 17 4 17 -5 0 -10 7 -10 15 0 20 4 19 16 -4z
m-126 -13 c-4 -7 -8 -17 -8 -22 0 -5 -6 -11 -12 -13 -16 -6 -17 19 -1 35 16
16 31 15 21 0z m5 -128 c12 -19 11 -20 -8 -8 -20 13 -27 28 -12 28 4 0 13 -9
20 -20z"/>
<path d="M118 820 c17 -7 22 -18 23 -47 l2 -38 6 34 6 35 17 -55 c23 -74 48
-132 55 -126 3 3 -2 19 -10 35 -10 20 -11 34 -5 43 8 11 9 11 5 -1 -3 -9 1
-24 8 -33 11 -16 13 -15 17 7 3 14 2 23 -2 21 -4 -2 -18 27 -31 65 l-24 70
-45 -1 c-37 0 -41 -2 -22 -9z m69 -41 c2 -16 -1 -19 -9 -11 -5 5 -7 15 -4 21
10 15 12 14 13 -10z m16 -44 c4 -8 2 -17 -3 -20 -6 -4 -10 3 -10 14 0 25 6 27
13 6z"/>
<path d="M280 821 c0 -5 -3 -18 -6 -28 -5 -15 -4 -15 5 -3 7 10 11 11 11 3 0
-7 5 -13 10 -13 6 0 9 3 9 8 -3 20 2 32 12 26 8 -4 7 -9 -2 -15 -11 -7 -10 -9
4 -9 9 0 17 6 17 14 0 8 8 17 18 19 9 3 -4 5 -30 6 -27 0 -48 -3 -48 -8z"/>
<path d="M430 813 c-28 -19 -40 -33 -40 -48 1 -5 5 -2 11 8 5 9 15 17 21 17 7
0 7 -4 -1 -13 -6 -8 -8 -17 -4 -20 3 -4 -3 -7 -14 -7 -12 0 -23 -8 -26 -19 -3
-14 0 -19 14 -18 13 1 15 4 7 14 -7 9 -7 13 0 13 17 0 24 -19 17 -47 -6 -24
-7 -25 -20 -7 -13 18 -14 17 -8 -6 8 -33 34 -62 50 -56 7 3 13 1 13 -4 0 -15
34 -17 63 -3 15 8 25 18 22 24 -4 5 -1 8 6 7 18 -4 41 69 34 104 -5 19 -13 28
-26 28 -11 0 -17 5 -14 10 4 6 11 8 16 5 5 -4 9 -4 9 -1 0 10 -59 36 -82 36
-13 0 -35 -8 -48 -17z m89 -33 c15 -34 16 -49 8 -91 -20 -100 -95 -87 -98 16
-4 104 55 153 90 75z m38 -24 c-3 -8 -1 -16 4 -18 6 -2 4 -19 -4 -42 -8 -23
-17 -35 -20 -29 -4 7 -4 14 1 17 4 2 7 23 6 45 0 23 3 41 9 41 5 0 7 -6 4 -14z
m-127 -111 c7 -8 8 -15 2 -15 -5 0 -15 7 -22 15 -7 8 -8 15 -2 15 5 0 15 -7
22 -15z"/>
<path d="M603 818 c9 -7 17 -29 19 -50 1 -20 5 -35 8 -33 4 2 5 18 2 35 -7 46
5 36 22 -17 8 -27 23 -68 33 -93 l20 -44 11 34 c10 26 9 37 -1 49 -8 9 -19 35
-26 59 -6 23 -16 40 -21 37 -5 -3 -7 -13 -4 -23 5 -14 4 -15 -5 -2 -7 10 -6
19 5 31 19 21 9 29 -40 29 -34 0 -37 -2 -23 -12z m87 -104 c0 -8 -4 -12 -10
-9 -5 3 -10 13 -10 21 0 8 5 12 10 9 6 -3 10 -13 10 -21z m18 -60 c-3 -14 -5
-12 -10 9 -3 19 -2 25 4 19 6 -6 8 -18 6 -28z"/>
<path d="M863 790 c0 -25 2 -35 4 -22 2 12 2 32 0 45 -2 12 -4 2 -4 -23z"/>
<path d="M1678 823 c12 -2 22 -12 23 -21 2 -64 -4 -168 -11 -177 -6 -7 4 -9
28 -7 l37 4 0 104 0 104 -50 -1 c-27 -1 -40 -4 -27 -6z m57 -162 c-3 -6 -11
-11 -17 -11 -6 0 -6 6 2 15 14 17 26 13 15 -4z"/>
<path d="M1815 810 c11 -12 21 -29 22 -38 9 -39 2 -108 -12 -129 -18 -27 -9
-30 24 -7 34 24 50 69 40 113 -8 38 -49 81 -76 81 -14 0 -14 -3 2 -20z m62
-46 c-3 -3 -12 -4 -19 -1 -8 3 -5 6 6 6 11 1 17 -2 13 -5z m-2 -74 c-3 -5 -12
-10 -18 -10 -7 0 -6 4 3 10 19 12 23 12 15 0z"/>
<path d="M308 773 c-15 -4 -18 -16 -18 -74 0 -48 -4 -69 -12 -69 -9 0 -8 -3 2
-10 20 -13 23 -8 23 54 0 31 4 53 8 50 5 -3 6 -10 3 -16 -4 -6 -1 -9 7 -6 16
5 25 57 12 67 -4 4 -16 6 -25 4z m22 -7 c0 -2 -8 -10 -17 -17 -16 -13 -17 -12
-4 4 13 16 21 21 21 13z"/>
<path d="M901 742 c-15 -28 -12 -119 4 -119 10 0 11 5 4 18 -5 10 -9 20 -9 23
0 11 46 6 58 -6 18 -18 15 -28 -10 -38 -22 -8 -22 -9 -3 -9 12 -1 26 4 33 11
14 14 17 52 3 44 -5 -3 -14 1 -21 9 -11 13 -10 14 5 9 12 -5 16 -4 12 3 -4 6
-20 13 -37 16 -34 7 -43 42 -12 50 16 4 16 5 0 6 -10 0 -22 -7 -27 -17z"/>
<path d="M961 733 c7 -10 15 -20 16 -22 2 -2 3 5 3 17 0 14 -6 22 -16 22 -14
0 -15 -3 -3 -17z"/>
<path d="M1265 721 c-3 -5 -1 -12 5 -16 5 -3 10 1 10 9 0 18 -6 21 -15 7z"/>
<path d="M632 678 c-2 -35 -6 -48 -17 -48 -8 0 -15 -4 -15 -8 0 -5 10 -8 23
-6 12 1 28 3 36 3 12 1 12 3 -2 14 -9 6 -18 30 -20 52 -4 39 -4 39 -5 -7z"/>
<path d="M152 680 c-1 -20 -7 -41 -14 -48 -16 -16 -8 -19 27 -11 17 4 22 7 13
8 -12 1 -18 12 -21 44 -3 39 -4 40 -5 7z"/>
<path d="M321 690 c-2 -3 -4 -20 -5 -37 -2 -31 0 -33 29 -32 22 1 24 3 8 6
-16 3 -23 13 -26 36 -2 18 -5 30 -6 27z"/>
<path d="M1014 538 c-44 -65 -48 -72 -35 -64 15 10 74 96 68 102 -2 2 -17 -15
-33 -38z"/>
<path d="M588 493 c8 -3 12 -28 13 -71 1 -47 3 -58 8 -37 9 42 41 47 41 6 0
-17 4 -31 8 -31 4 0 6 16 4 35 -3 29 -8 35 -28 35 -21 0 -24 5 -24 35 0 27 -4
35 -17 34 -11 0 -13 -3 -5 -6z"/>
<path d="M1017 484 c-4 -4 -7 -20 -7 -36 0 -15 -5 -28 -11 -28 -8 0 -8 -4 -2
-12 11 -14 9 -69 -2 -90 -6 -10 -5 -10 5 -1 12 11 17 30 19 75 1 9 9 19 19 21
16 4 16 5 0 6 -13 1 -18 10 -18 31 0 32 8 37 29 18 11 -11 13 -10 9 2 -5 16
-30 25 -41 14z"/>
<path d="M1278 455 c4 -30 1 -35 -17 -35 -26 0 -43 -29 -30 -53 7 -11 22 -17
47 -17 20 0 32 4 26 8 -6 4 -12 25 -12 47 0 69 -2 85 -10 85 -4 0 -6 -16 -4
-35z m0 -73 c3 -17 -2 -22 -17 -22 -16 0 -21 6 -21 26 0 33 33 30 38 -4z"/>
<path d="M693 424 c-17 -8 -16 -39 2 -54 24 -20 57 -3 53 28 -3 27 -27 38 -55
26z m42 -29 c0 -11 -7 -21 -16 -23 -18 -3 -33 23 -23 39 10 17 39 5 39 -16z"/>
<path d="M769 416 c5 -6 7 -21 5 -34 -3 -15 0 -21 7 -17 6 4 8 13 5 20 -5 13
12 35 26 35 4 0 9 -15 9 -32 l1 -33 7 29 c8 39 29 45 33 10 2 -15 10 -29 18
-31 12 -4 12 -3 2 5 -8 5 -13 12 -13 16 6 41 2 45 -54 44 -37 -1 -52 -5 -46
-12z"/>
<path d="M904 416 c-14 -37 22 -74 48 -48 6 6 0 8 -16 5 -15 -3 -26 -1 -26 6
0 6 12 11 26 11 19 0 25 5 22 18 -4 22 -46 29 -54 8z m41 -6 c3 -5 -3 -10 -15
-10 -12 0 -18 5 -15 10 3 6 10 10 15 10 5 0 12 -4 15 -10z"/>
<path d="M1072 411 c-8 -4 -12 -19 -10 -32 4 -29 45 -34 61 -7 19 30 -19 60
-51 39z m42 -10 c9 -14 -4 -41 -19 -41 -18 0 -28 17 -21 35 6 17 32 20 40 6z"/>
<path d="M1150 400 c-14 -27 4 -52 34 -48 31 4 30 62 -1 66 -14 2 -26 -4 -33
-18z m48 -13 c4 -21 -27 -35 -38 -17 -12 19 0 42 19 38 9 -2 17 -11 19 -21z"/>
</g>
</svg>
